<?xml version="1.0" encoding="UTF-8"?><svg width="17px" height="21px" viewBox="0 0 17 21" version="1.1" xmlns="http://www.w3.org/2000/svg" xmlns:xlink="http://www.w3.org/1999/xlink"><defs><polygon id="path-1" points="0.150604545 0.28595 16.9590455 0.28595 16.9590455 21 0.150604545 21"></polygon></defs><g id="Symbols" stroke="none" stroke-width="1" fill="none" fill-rule="evenodd"><g id="Base/Logo/Small"><g id="Group-15"><g id="Group-14"><mask id="mask-2" fill="white"><use xlink:href="#path-1"></use></mask><g id="Clip-13"></g><path d="M13.8831273,12.0043389 C13.3789227,12.9458389 12.6262864,13.72945 11.7082864,14.26845 C10.7547409,14.8230056 9.66944545,15.1068944 8.56830909,15.0897833 L8.43076364,15.0897833 C7.10051364,15.0147278 5.78494545,15.3981722 4.70003636,16.1763389 L4.55630909,16.2813389 L2.47999091,17.7925611 L2.43633182,8.75672778 C2.42087727,7.62195 2.69674091,6.50272778 3.23765,5.50678333 C3.75267273,4.56295 4.51535455,3.78011667 5.44185455,3.24228333 C7.38912727,2.14795 9.76101364,2.14795 11.7082864,3.24228333 C12.6262864,3.78128333 13.3789227,4.56489444 13.8831273,5.50678333 C14.4155364,6.51128333 14.6840591,7.63595 14.6639682,8.77422778 C14.6813545,9.90317222 14.4120591,11.0177278 13.8815818,12.0121167 L13.8831273,12.0043389 Z M15.8609227,4.42022778 C15.1531045,3.15050556 14.1145591,2.09972778 12.8569455,1.38028333 C10.1759682,-0.0788277778 6.94480909,-0.0788277778 4.26421818,1.38028333 C3.00158182,2.09389444 1.96110455,3.14622778 1.25830909,4.42022778 C0.533490909,5.72028333 0.15215,7.18600556 0.150604545,8.67661667 L0.202377273,19.6638944 C0.203536364,20.4031722 0.799695455,21.0012833 1.53378636,21.0001167 C1.80849091,20.9997278 2.07624091,20.9133944 2.30033182,20.7535611 L6.1234,18.0068389 C6.83121818,17.4958389 7.68005909,17.2208944 8.55092273,17.2201167 L8.56328636,17.2201167 C10.30115,17.2492833 12.0065591,16.7410056 13.4473091,15.7625611 C14.2231273,15.2321167 14.8965591,14.5643944 15.4363091,13.79245 C16.4559227,12.3208944 16.9883318,10.5635056 16.9578091,8.76956111 C16.9802182,7.24783889 16.6015818,5.74711667 15.8609227,4.42022778 Z" id="Fill-12" fill="white" mask="url(#mask-2)"></path></g></g></g></g></svg>